<svg xmlns="http://www.w3.org/2000/svg" viewBox="0 0 32 32">
  <circle cx="16" cy="16" r="16" fill="#f7931a"/>
  <path fill="#fff" d="M22.4 13.8c.3-2-1.2-3-3.3-3.7l.7-2.7-1.6-.4-.6 2.6-1.3-.3.6-2.6-1.6-.4-.7 2.7-1 .2v.2l-2.2-.6-.4 1.7s1.2.3 1.2.3c.6.2.5.6.5.9l-1.3 5.2c-.1.2-.3.5-.8.4 0 0-1.2-.3-1.2-.3l-.8 1.8 2.1.5 1.1.3-.7 2.7 1.6.4.7-2.7 1.3.3-.7 2.7 1.6.4.7-2.8c2.8.5 4.8.3 5.7-2.2.7-2-.1-3.1-1.4-3.8.9-.3 1.7-.9 1.9-2.3zm-3.4 4.7c-.5 2-3.8.9-4.9.6l.9-3.5c1.1.3 4.5.8 4 2.9zm.5-4.7c-.5 1.8-3.3.9-4.2.7l.8-3.2c.9.2 3.9.6 3.4 2.5z"/>
</svg>
